<svg viewBox="0 0 296 124" xmlns="http://www.w3.org/2000/svg" fill-rule="evenodd" clip-rule="evenodd" stroke-linejoin="round" stroke-miterlimit="1.414"><path d="M22.82 1.52c4.48 0 8.01.94 10.59 2.82s3.87 4.44 3.87 7.68c0 2.32-.65 4.31-1.95 5.97-1.3 1.66-3.09 2.77-5.37 3.33 2.8.52 4.99 1.72 6.57 3.6 1.58 1.88 2.37 4.22 2.37 7.02 0 3.6-1.39 6.43-4.17 8.49-2.78 2.06-6.57 3.09-11.37 3.09H4.16v-42h18.66zm-.42 17.16c2.08 0 3.71-.46 4.89-1.38 1.18-.92 1.77-2.2 1.77-3.84 0-1.6-.59-2.84-1.77-3.72-1.18-.88-2.81-1.3-4.89-1.26H12.2v10.2h10.2zm0 17.88c2.56.04 4.56-.44 6-1.44 1.44-1 2.16-2.4 2.16-4.2 0-1.72-.72-3.07-2.16-4.05-1.44-.98-3.44-1.45-6-1.41H12.2v11.1h10.2zM63.98.98c4.16 0 7.95.94 11.37 2.82 3.42 1.88 6.11 4.46 8.07 7.74 1.96 3.28 2.94 6.92 2.94 10.92s-.98 7.65-2.94 10.95c-1.96 3.3-4.65 5.91-8.07 7.83s-7.21 2.88-11.37 2.88c-4.16 0-7.95-.96-11.37-2.88-3.42-1.92-6.11-4.53-8.07-7.83s-2.94-6.95-2.94-10.95c0-4 .98-7.64 2.94-10.92 1.96-3.28 4.65-5.86 8.07-7.74S59.82.98 63.98.98zm.12 7.2c-2.56 0-4.94.63-7.14 1.89-2.2 1.26-3.94 2.98-5.22 5.16-1.28 2.18-1.92 4.59-1.92 7.23 0 2.64.65 5.06 1.95 7.26 1.3 2.2 3.04 3.94 5.22 5.22 2.18 1.28 4.55 1.92 7.11 1.92 2.52 0 4.86-.64 7.02-1.92 2.16-1.28 3.87-3.02 5.13-5.22 1.26-2.2 1.89-4.62 1.89-7.26 0-2.64-.63-5.05-1.89-7.23-1.26-2.18-2.97-3.9-5.13-5.16-2.16-1.26-4.5-1.89-7.02-1.89zm56.82-6.66h7.8v42h-7.62L99.5 14.6v28.92h-7.86v-42h7.62l21.66 28.98V1.52zm37.38 28.8c0 4.28-1.2 7.61-3.6 9.99-2.4 2.38-5.68 3.57-9.84 3.57-5.2 0-9.52-2.1-12.96-6.3l3.78-6c1.4 1.48 2.89 2.63 4.47 3.45 1.58.82 3.07 1.23 4.47 1.23 1.76 0 3.13-.53 4.11-1.59.98-1.06 1.47-2.57 1.47-4.53V8.66h-14.46V1.52h22.56v28.8zM185.06.98c4.16 0 7.95.94 11.37 2.82 3.42 1.88 6.11 4.46 8.07 7.74 1.96 3.28 2.94 6.92 2.94 10.92s-.98 7.65-2.94 10.95c-1.96 3.3-4.65 5.91-8.07 7.83s-7.21 2.88-11.37 2.88c-4.16 0-7.95-.96-11.37-2.88-3.42-1.92-6.11-4.53-8.07-7.83s-2.94-6.95-2.94-10.95c0-4 .98-7.64 2.94-10.92 1.96-3.28 4.65-5.86 8.07-7.74S180.9.98 185.06.98zm.12 7.2c-2.56 0-4.94.63-7.14 1.89-2.2 1.26-3.94 2.98-5.22 5.16-1.28 2.18-1.92 4.59-1.92 7.23 0 2.64.65 5.06 1.95 7.26 1.3 2.2 3.04 3.94 5.22 5.22 2.18 1.28 4.55 1.92 7.11 1.92 2.52 0 4.86-.64 7.02-1.92 2.16-1.28 3.87-3.02 5.13-5.22 1.26-2.2 1.89-4.62 1.89-7.26 0-2.64-.63-5.05-1.89-7.23-1.26-2.18-2.97-3.9-5.13-5.16-2.16-1.26-4.5-1.89-7.02-1.89zm34.8 18.06c0 3.32.94 5.92 2.82 7.8s4.4 2.82 7.56 2.82c3.16 0 5.65-.94 7.47-2.82 1.82-1.88 2.73-4.48 2.73-7.8V1.52h8.04v24.72c0 3.64-.74 6.81-2.22 9.51-1.48 2.7-3.59 4.77-6.33 6.21-2.74 1.44-5.97 2.16-9.69 2.16-3.76 0-7.03-.72-9.81-2.16-2.78-1.44-4.91-3.51-6.39-6.21-1.48-2.7-2.22-5.87-2.22-9.51V1.52h8.04v24.72zm62.58 17.28L275.3 31.1c-.32.04-.82.06-1.5.06h-9.48v12.36h-8.04v-42h17.52c5.44 0 9.64 1.26 12.6 3.78 2.96 2.52 4.44 6.08 4.44 10.68 0 3.28-.71 6.08-2.13 8.4-1.42 2.32-3.49 4.06-6.21 5.22l9.24 13.92h-9.18zm-18.24-19.44h9.48c3.04 0 5.36-.66 6.96-1.98 1.6-1.32 2.4-3.28 2.4-5.88 0-2.56-.8-4.48-2.4-5.76-1.6-1.28-3.92-1.92-6.96-1.92h-9.48v15.54z" fill="#5a5050" fill-rule="nonzero"/><path fill="#5a5050" d="M4.16 43H10v45H4.16zm11.9 0h5.84v60h-5.84zm12.1-4H34v85h-5.84zM40 43h251.74v43H40z"/><g fill="#fff" fill-rule="nonzero"><path d="M92.102 73.656c-1.344 0-2.412-.51-3.204-1.53a5.515 5.515 0 0 1-1.188-3.474c0-2.616.552-4.596 1.656-5.94 1.104-1.344 2.532-2.016 4.284-2.016.816 0 1.488.222 2.016.666.528.444.792 1.05.792 1.818 0 1.44-.606 2.646-1.818 3.618-1.212.972-2.694 1.482-4.446 1.53.096.936.414 1.746.954 2.43.54.684 1.17 1.026 1.89 1.026s1.368-.168 1.944-.504c.576-.336 1.104-.816 1.584-1.44 1.008-1.32 1.872-2.82 2.592-4.5.192-.432.342-.744.45-.936.108-.192.228-.288.36-.288.132 0 .198.096.198.288 0 1.2-.732 3-2.196 5.4-1.584 2.568-3.54 3.852-5.868 3.852zm-1.908-6.192c1.416-.24 2.454-.696 3.114-1.368.66-.672.99-1.548.99-2.628s-.348-1.62-1.044-1.62c-.84 0-1.548.582-2.124 1.746-.576 1.164-.888 2.454-.936 3.87z"/><path d="M107.222 67.608c-1.896 4.032-3.498 6.048-4.806 6.048-1.308 0-2.076-.156-2.304-.468-.228-.312-.342-1.344-.342-3.096s.168-4.284.504-7.596c-1.2-.24-1.836-.732-1.908-1.476 0-.384.252-.576.756-.576s.948.096 1.332.288c.216-1.728.468-3.48.756-5.256.072-.456.3-.888.684-1.296.384-.408.756-.612 1.116-.612.312 0 .468.492.468 1.476 0 .456-.168 2.556-.504 6.3.648-.12 1.362-.36 2.142-.72.78-.36 1.242-.54 1.386-.54.432 0 .648.132.648.396.024.24-.42.57-1.332.99-.912.42-1.896.738-2.952.954-.288 3.504-.432 6.156-.432 7.956 0 .96.144 1.44.432 1.44.432-.024 1.008-.528 1.728-1.512s1.434-2.262 2.142-3.834 1.14-2.358 1.296-2.358c.156 0 .234.096.234.288 0 .672-.348 1.74-1.044 3.204zm14.868-6.552c1.104 0 2.016.402 2.736 1.206.72.804 1.092 1.926 1.116 3.366.984-.288 1.854-.636 2.61-1.044.756-.408 1.158-.612 1.206-.612.144 0 .216.12.216.36s-.342.612-1.026 1.116c-.684.504-1.71 1.008-3.078 1.512-.288 2.136-1.152 3.786-2.592 4.95-1.44 1.164-2.88 1.746-4.32 1.746-1.44 0-2.4-.534-2.88-1.602s-.72-2.754-.72-5.058.168-4.488.504-6.552c.336-2.064.768-3.69 1.296-4.878.528-1.188 1.074-2.1 1.638-2.736.564-.636 1.098-.954 1.602-.954.24 0 .462.288.666.864.204.576.306 1.284.306 2.124 0 1.848-.336 4.008-1.008 6.48.456-.192 1.032-.288 1.728-.288zm1.62 6.48c-.192.024-.594.036-1.206.036s-1.284-.21-2.016-.63c-.732-.42-1.23-1.002-1.494-1.746-.24.6-.516 1.176-.828 1.728.048 1.824.192 3.132.432 3.924.24.792.624 1.188 1.152 1.188.84 0 1.662-.354 2.466-1.062.804-.708 1.302-1.854 1.494-3.438zm-3.204-12.024c0-1.008-.132-1.512-.396-1.512-.216 0-.474.522-.774 1.566-.3 1.044-.576 2.46-.828 4.248a38.01 38.01 0 0 0-.378 5.31c1.584-4.488 2.376-7.692 2.376-9.612zm1.008 6.84c-.336 0-.606.102-.81.306-.204.204-.306.474-.306.81 0 .744.33 1.362.99 1.854.66.492 1.458.738 2.394.738-.024-.984-.216-1.848-.576-2.592s-.924-1.116-1.692-1.116z"/><path d="M130.478 55.872c0-.432.228-.804.684-1.116.456-.312.864-.468 1.224-.468.648 0 .972.372.972 1.116 0 .744-.192 1.386-.576 1.926-.384.54-.924.81-1.62.81-.456 0-.684-.756-.684-2.268zm1.044 17.784c-.936 0-1.644-.192-2.124-.576-.168-.168-.252-.768-.252-1.8s.078-2.754.234-5.166c.156-2.412.294-3.714.414-3.906.12-.192.492-.552 1.116-1.08.624-.528 1.11-.792 1.458-.792.348 0 .522.456.522 1.368 0 .24-.066.708-.198 1.404s-.282 1.2-.45 1.512c-.312.792-.468 2.868-.468 6.228 0 .648.072.972.216.972.408-.024.972-.534 1.692-1.53s1.434-2.274 2.142-3.834 1.14-2.34 1.296-2.34c.156 0 .234.096.234.288 0 .672-.348 1.74-1.044 3.204-1.896 4.032-3.492 6.048-4.788 6.048z"/><path d="M140.738 73.656c-1.344 0-2.412-.51-3.204-1.53a5.515 5.515 0 0 1-1.188-3.474c0-2.616.552-4.596 1.656-5.94 1.104-1.344 2.532-2.016 4.284-2.016.816 0 1.488.222 2.016.666.528.444.792 1.05.792 1.818 0 1.44-.606 2.646-1.818 3.618-1.212.972-2.694 1.482-4.446 1.53.096.936.414 1.746.954 2.43.54.684 1.17 1.026 1.89 1.026s1.368-.168 1.944-.504c.576-.336 1.104-.816 1.584-1.44 1.008-1.32 1.872-2.82 2.592-4.5.192-.432.342-.744.45-.936.108-.192.228-.288.36-.288.132 0 .198.096.198.288 0 1.2-.732 3-2.196 5.4-1.584 2.568-3.54 3.852-5.868 3.852zm-1.908-6.192c1.416-.24 2.454-.696 3.114-1.368.66-.672.99-1.548.99-2.628s-.348-1.62-1.044-1.62c-.84 0-1.548.582-2.124 1.746-.576 1.164-.888 2.454-.936 3.87z"/><path d="M150.602 71.532l.036 1.116c0 .672-.192 1.008-.576 1.008a5.814 5.814 0 0 1-1.656-.234c-.528-.156-.792-.372-.792-.648s.066-1.224.198-2.844c.132-1.62.198-2.838.198-3.654v-2.124c0-1.152.12-1.848.36-2.088s.666-.588 1.278-1.044c.612-.456 1.056-.684 1.332-.684s.45.048.522.144c.072.096.108.276.108.54 0 1.272-.24 2.472-.72 3.6-.12 1.368-.18 2.316-.18 2.844.096-.144.6-.96 1.512-2.448s1.686-2.58 2.322-3.276c.636-.696 1.206-1.044 1.71-1.044s.954.168 1.35.504c.396.336.594.756.594 1.26 0 1.056-.114 2.61-.342 4.662-.228 2.052-.342 3.348-.342 3.888s.072.81.216.81c.408-.024.972-.534 1.692-1.53s1.434-2.274 2.142-3.834 1.14-2.34 1.296-2.34c.156 0 .234.096.234.288 0 .672-.348 1.74-1.044 3.204-1.896 4.032-3.492 6.048-4.788 6.048-.936 0-1.644-.192-2.124-.576-.168-.168-.252-.606-.252-1.314 0-.708.066-1.86.198-3.456.132-1.596.198-2.79.198-3.582 0-.792-.138-1.188-.414-1.188-.276 0-1.002.822-2.178 2.466-1.176 1.644-1.8 2.694-1.872 3.15-.144.84-.216 1.632-.216 2.376z"/><path d="M166.55 71.892c.864 0 1.62-.45 2.268-1.35.648-.9 1.128-1.998 1.44-3.294-.864-.264-1.524-.726-1.98-1.386-.456-.66-.684-1.422-.684-2.286 0-.864.222-1.62.666-2.268.444-.648 1.086-.972 1.926-.972.504 0 .888.318 1.152.954.264.636.396 1.35.396 2.142 0 .792-.06 1.584-.18 2.376.36.144.744.216 1.152.216.936 0 1.836-.432 2.7-1.296.432-.432.726-.648.882-.648.156 0 .234.12.234.36s-.156.528-.468.864c-1.272 1.416-2.88 2.124-4.824 2.124-.456 1.752-1.164 3.228-2.124 4.428-.96 1.2-2.136 1.8-3.528 1.8-.816 0-1.488-.348-2.016-1.044-.888-1.128-1.332-2.784-1.332-4.968 0-.744.06-1.704.18-2.88s.258-1.896.414-2.16c.156-.264.54-.588 1.152-.972.612-.384 1.038-.576 1.278-.576.36 0 .54.216.54.648 0 1.224-.312 2.556-.936 3.996 0 1.704.138 3.162.414 4.374.276 1.212.702 1.818 1.278 1.818zm3.276-10.188c-.192 0-.288.396-.288 1.188 0 .792.36 1.548 1.08 2.268.048-.288.072-.576.072-.864 0-1.728-.288-2.592-.864-2.592z"/><path d="M179.942 73.656c-1.344 0-2.412-.51-3.204-1.53a5.515 5.515 0 0 1-1.188-3.474c0-2.616.552-4.596 1.656-5.94 1.104-1.344 2.532-2.016 4.284-2.016.816 0 1.488.222 2.016.666.528.444.792 1.05.792 1.818 0 1.44-.606 2.646-1.818 3.618-1.212.972-2.694 1.482-4.446 1.53.096.936.414 1.746.954 2.43.54.684 1.17 1.026 1.89 1.026s1.368-.168 1.944-.504c.576-.336 1.104-.816 1.584-1.44 1.008-1.32 1.872-2.82 2.592-4.5.192-.432.342-.744.45-.936.108-.192.228-.288.36-.288.132 0 .198.096.198.288 0 1.2-.732 3-2.196 5.4-1.584 2.568-3.54 3.852-5.868 3.852zm-1.908-6.192c1.416-.24 2.454-.696 3.114-1.368.66-.672.99-1.548.99-2.628s-.348-1.62-1.044-1.62c-.84 0-1.548.582-2.124 1.746-.576 1.164-.888 2.454-.936 3.87z"/><path d="M189.806 71.532l.036 1.116c0 .672-.192 1.008-.576 1.008a5.814 5.814 0 0 1-1.656-.234c-.528-.156-.792-.372-.792-.648s.066-1.224.198-2.844c.132-1.62.198-2.838.198-3.654v-2.124c0-1.152.12-1.848.36-2.088s.666-.588 1.278-1.044c.612-.456 1.056-.684 1.332-.684s.45.048.522.144c.072.096.108.276.108.54 0 1.272-.24 2.472-.72 3.6-.12 1.368-.18 2.316-.18 2.844.096-.144.6-.96 1.512-2.448s1.686-2.58 2.322-3.276c.636-.696 1.206-1.044 1.71-1.044s.954.168 1.35.504c.396.336.594.756.594 1.26 0 1.056-.114 2.61-.342 4.662-.228 2.052-.342 3.348-.342 3.888s.072.81.216.81c.408-.024.972-.534 1.692-1.53s1.434-2.274 2.142-3.834 1.14-2.34 1.296-2.34c.156 0 .234.096.234.288 0 .672-.348 1.74-1.044 3.204-1.896 4.032-3.492 6.048-4.788 6.048-.936 0-1.644-.192-2.124-.576-.168-.168-.252-.606-.252-1.314 0-.708.066-1.86.198-3.456.132-1.596.198-2.79.198-3.582 0-.792-.138-1.188-.414-1.188-.276 0-1.002.822-2.178 2.466-1.176 1.644-1.8 2.694-1.872 3.15-.144.84-.216 1.632-.216 2.376z"/><path d="M201.254 70.344l.216-4.032c0-2.568.12-3.972.36-4.212.24-.24.666-.594 1.278-1.062.612-.468 1.056-.702 1.332-.702s.45.048.522.144c.072.096.108.288.108.576 0 1.032-.228 2.076-.684 3.132-.36 2.208-.54 4.02-.54 5.436 0 1.416.228 2.124.684 2.124.552 0 1.2-.48 1.944-1.44s1.488-2.388 2.232-4.284c.216-2.4.39-3.696.522-3.888.132-.192.462-.54.99-1.044s.966-.756 1.314-.756c.348 0 .522.456.522 1.368 0 .24-.066.708-.198 1.404s-.282 1.2-.45 1.512c-.264.672-.396 2.748-.396 6.228 0 .648.072.972.216.972.408-.024.972-.534 1.692-1.53s1.434-2.274 2.142-3.834 1.14-2.34 1.296-2.34c.156 0 .234.096.234.288 0 .672-.348 1.74-1.044 3.204-1.896 4.032-3.492 6.048-4.788 6.048-.936 0-1.644-.192-2.124-.576-.168-.168-.252-.684-.252-1.548s.036-1.824.108-2.88c-.768 1.632-1.536 2.874-2.304 3.726-.768.852-1.626 1.278-2.574 1.278s-1.578-.252-1.89-.756c-.312-.504-.468-1.356-.468-2.556z"/><path d="M219.686 73.656c-1.344 0-2.412-.51-3.204-1.53a5.515 5.515 0 0 1-1.188-3.474c0-2.616.552-4.596 1.656-5.94 1.104-1.344 2.532-2.016 4.284-2.016.816 0 1.488.222 2.016.666.528.444.792 1.05.792 1.818 0 1.44-.606 2.646-1.818 3.618-1.212.972-2.694 1.482-4.446 1.53.096.936.414 1.746.954 2.43.54.684 1.17 1.026 1.89 1.026s1.368-.168 1.944-.504c.576-.336 1.104-.816 1.584-1.44 1.008-1.32 1.872-2.82 2.592-4.5.192-.432.342-.744.45-.936.108-.192.228-.288.36-.288.132 0 .198.096.198.288 0 1.2-.732 3-2.196 5.4-1.584 2.568-3.54 3.852-5.868 3.852zm-1.908-6.192c1.416-.24 2.454-.696 3.114-1.368.66-.672.99-1.548.99-2.628s-.348-1.62-1.044-1.62c-.84 0-1.548.582-2.124 1.746-.576 1.164-.888 2.454-.936 3.87zm20.916 6.66c-.36 0-.708-.114-1.044-.342-.336-.228-.498-.606-.486-1.134.012-.528.252-.942.72-1.242.468-.3.906-.45 1.314-.45.408 0 .75.114 1.026.342.276.228.414.51.414.846 0 1.32-.648 1.98-1.944 1.98zm2.376-21.528c.216 0 .456.126.72.378.264.252.396.552.396.9s-.024.684-.072 1.008a13.11 13.11 0 0 1-.234 1.152 30.245 30.245 0 0 0-.36 1.782c-.132.744-.39 2.352-.774 4.824s-.66 4.188-.828 5.148c-.048.216-.162.42-.342.612-.18.192-.366.288-.558.288-.528 0-.792-.468-.792-1.404 0-1.512.036-2.79.108-3.834.072-1.044.12-2.022.144-2.934.024-1.992.15-3.474.378-4.446.228-.972.552-1.794.972-2.466.42-.672.834-1.008 1.242-1.008z"/></g></svg>